<svg xmlns="http://www.w3.org/2000/svg" fill="none" viewBox="0 0 96 96" id="edit">
  <path stroke="#b50f07" stroke-linecap="round" stroke-width="5" d="M46 16H20C15.0294 16 11 20.0294 11 25V77C11 81.9706 15.0294 86 20 86H72C76.9706 86 81 81.9706 81 77V51" class="colorStroke12182b svgStroke"></path>
  <path stroke="#b50f07" stroke-width="5" d="M48.73 40.9225C49.1118 39.1887 49.9818 37.6003 51.2372 36.345L76.0574 11.5247C78.5569 9.02528 82.6092 9.02529 85.1086 11.5247V11.5247C87.6081 14.0241 87.6081 18.0765 85.1087 20.5759L60.2884 45.3962C59.033 46.6516 57.4447 47.5215 55.7108 47.9034L47.3745 49.7395C47.0869 49.8028 46.8305 49.5465 46.8939 49.2589L48.73 40.9225Z" class="colorStroke12182b svgStroke"></path>
</svg>
